<?xml version="1.0" encoding="iso-8859-1"?>
<!-- Generator: Adobe Illustrator 19.0.0, SVG Export Plug-In . SVG Version: 6.00 Build 0)  -->
<svg version="1.1" id="Capa_1" xmlns="http://www.w3.org/2000/svg" xmlns:xlink="http://www.w3.org/1999/xlink" x="0px" y="0px"
	 viewBox="0 0 512.065 512.065" style="enable-background:new 0 0 512.065 512.065;" xml:space="preserve">
<g>
	<g>
		<path d="M486.34,77.454c0.106-1.097-0.003-2.204-0.323-3.259c-1.828-10.512-10.644-20.089-26.169-28.57
			C448.1,9.724,323.486,0,256.033,0S63.965,9.724,52.217,45.625c-15.526,8.481-24.341,18.057-26.169,28.57
			c-0.319,1.055-0.429,2.162-0.323,3.259c-0.012,0.315-0.093,0.621-0.093,0.938c0.071,5.359,1.78,10.569,4.897,14.929
			l58.812,181.738c11.36,35.249,35.81,64.796,68.31,82.551l-37.752,119.307c-1.241,3.905,0.475,8.139,4.083,10.079
			c5.143,2.726,10.464,5.103,15.925,7.117c37.39,12.603,76.675,18.655,116.125,17.887c39.429,0.768,78.694-5.276,116.067-17.867
			c5.482-2.018,10.821-4.403,15.983-7.138c3.608-1.94,5.324-6.175,4.083-10.079L354.414,357.61c32.5-17.754,56.95-47.3,68.31-82.547
			L481.536,93.32c3.117-4.36,4.826-9.569,4.897-14.929C486.433,78.075,486.352,77.769,486.34,77.454z M256.033,17.067
			c138.733,0,187.733,27.187,187.733,34.133c0,6.946-49,34.133-187.733,34.133S68.299,58.146,68.299,51.2
			C68.299,44.254,117.299,17.067,256.033,17.067z M54.685,112.545c9.819,4.902,20.053,8.925,30.582,12.02L65.1,144.729
			L54.685,112.545z M98.196,135.769l7.963,27.935c-9.349-2.256-18.567-5.023-27.613-8.287L98.196,135.769z M373.683,475.058
			c-2.367,1.054-4.914,2.094-7.642,3.121c-35.435,11.861-72.649,17.528-110.008,16.754c-37.38,0.773-74.614-4.902-110.067-16.775
			c-2.7-1.013-5.228-2.046-7.583-3.1l9.321-29.457c35.117,10.589,71.654,15.715,108.329,15.199
			c36.675,0.514,73.212-4.61,108.33-15.194L373.683,475.058z M354.524,414.514l4.688,14.816
			c-33.447,10.083-68.25,14.941-103.18,14.404c-34.93,0.537-69.733-4.321-103.18-14.404l4.688-14.816
			c32.144,8.414,65.267,12.501,98.492,12.153C289.258,427.015,322.38,422.928,354.524,414.514z M162.69,398.243l10.522-33.252
			c17.214,6.918,35.594,10.474,54.146,10.475h57.35c18.552-0.002,36.932-3.557,54.146-10.475l10.522,33.252
			c-30.477,7.886-61.864,11.705-93.343,11.357C224.554,409.948,193.167,406.129,162.69,398.243z M406.491,269.808
			c-16.995,52.882-66.237,88.703-121.783,88.592h-57.35c-55.547,0.111-104.79-35.712-121.783-88.596l-31.699-97.958
			c36.887,13.232,92.426,21.881,153.869,23.931c1.618,0.602,3.39,0.65,5.039,0.138c7.682,0.21,15.421,0.352,23.25,0.352
			c7.829,0,15.568-0.142,23.251-0.352c1.649,0.512,3.421,0.464,5.039-0.138c61.443-2.051,116.983-10.7,153.869-23.932
			L406.491,269.808z M122.61,159.148l-7.708-27.037c7.344,1.545,15.024,2.939,22.929,4.209L122.61,159.148z M152.009,145.821
			l12.018,28.095c-9.737-1.173-19.104-2.53-28.043-4.062L152.009,145.821z M168.247,140.413c7.858,0.865,15.851,1.615,23.979,2.249
			l-12.404,24.81L168.247,140.413z M194.202,176.878l10.622-21.249l11.28,22.597C208.684,177.87,201.383,177.421,194.202,176.878z
			 M218.201,144.214c7.99,0.355,16.021,0.598,24.093,0.729l-11.87,23.765L218.201,144.214z M244.326,179.096l11.707-23.456
			l11.707,23.456c-3.889,0.054-7.78,0.104-11.707,0.104S248.214,179.15,244.326,179.096z M269.765,144.943
			c8.063-0.129,16.094-0.372,24.093-0.729l-12.235,24.494L269.765,144.943z M295.961,178.226l11.28-22.597l10.622,21.249
			C310.691,177.425,303.39,177.875,295.961,178.226z M319.838,142.662c8.126-0.624,16.119-1.374,23.979-2.25l-11.576,27.06
			L319.838,142.662z M376.082,169.854c-8.939,1.532-18.306,2.889-28.043,4.062l12.018-28.095L376.082,169.854z M374.234,136.321
			c7.904-1.271,15.585-2.665,22.929-4.209l-7.707,27.037L374.234,136.321z M405.906,163.704l7.963-27.935l19.65,19.647
			C424.473,158.681,415.255,161.447,405.906,163.704z M446.965,144.73l-20.167-20.165c10.529-3.095,20.763-7.117,30.582-12.02
			L446.965,144.73z M256.033,128C123.857,128,42.699,99.108,42.699,78.392c0-4.51,4.693-9.837,13.048-15.116
			C79.495,93.865,192.843,102.4,256.033,102.4s176.538-8.535,200.285-39.125c8.355,5.279,13.048,10.606,13.048,15.116
			C469.366,99.108,388.208,128,256.033,128z"/>
	</g>
</g>
<g>
</g>
<g>
</g>
<g>
</g>
<g>
</g>
<g>
</g>
<g>
</g>
<g>
</g>
<g>
</g>
<g>
</g>
<g>
</g>
<g>
</g>
<g>
</g>
<g>
</g>
<g>
</g>
<g>
</g>
</svg>
