<svg id="Layer_1" enable-background="new 0 0 512 512" height="512" viewBox="0 0 512 512" width="512" xmlns="http://www.w3.org/2000/svg"><g><path d="m502 166h-56v-90c0-5.522-4.477-10-10-10h-360c-5.523 0-10 4.478-10 10v90h-56c-5.523 0-10 4.478-10 10v260c0 5.522 4.477 10 10 10h492c5.523 0 10-4.478 10-10v-260c0-5.522-4.477-10-10-10zm-76-60h-80v-20h80zm-120 0v-20h20v20zm-40 0v-20h20v20zm-40 0v-20h20v20zm-40 0v-20h20v20zm-20-20v20h-80v-20zm-80 40h340v40h-340zm406 60v60h-166v-30c0-5.522-4.477-10-10-10h-120c-5.523 0-10 4.478-10 10v30h-166v-60zm-286 60v-20h100v20zm-6 100h112v40h-112zm68 60v20h-24v-20zm20 0h24v20h-24zm24-80h-112v-20h112zm-112 80h24v20h-24zm132 20v-130c0-5.522-4.477-10-10-10h-132c-5.523 0-10 4.478-10 10v130h-160v-160h472v160z"/><circle cx="236" cy="366" r="10"/><circle cx="276" cy="366" r="10"/><circle cx="60" cy="216" r="10"/><circle cx="140" cy="216" r="10"/><circle cx="100" cy="216" r="10"/><path d="m356 226h106c5.523 0 10-4.478 10-10s-4.477-10-10-10h-106c-5.523 0-10 4.478-10 10s4.477 10 10 10z"/><path d="m100 286c-33.084 0-60 26.916-60 60s26.916 60 60 60 60-26.916 60-60-26.916-60-60-60zm0 100c-22.056 0-40-17.944-40-40s17.944-40 40-40 40 17.944 40 40-17.944 40-40 40z"/><circle cx="100" cy="346" r="20"/><path d="m412 286c-33.084 0-60 26.916-60 60s26.916 60 60 60 60-26.916 60-60-26.916-60-60-60zm0 100c-22.056 0-40-17.944-40-40s17.944-40 40-40 40 17.944 40 40-17.944 40-40 40z"/><circle cx="412" cy="346" r="20"/></g></svg>