<?xml version="1.0" encoding="iso-8859-1"?>
<!-- Generator: Adobe Illustrator 19.0.0, SVG Export Plug-In . SVG Version: 6.00 Build 0)  -->
<svg version="1.1" id="Capa_1" xmlns="http://www.w3.org/2000/svg" xmlns:xlink="http://www.w3.org/1999/xlink" x="0px" y="0px"
	 viewBox="0 0 511.997 511.997" style="enable-background:new 0 0 511.997 511.997;" xml:space="preserve">
<g>
	<g>
		<path d="M491.055,0.006C490.585,0.002,490.103,0,489.611,0c-14.075,0-39.488,1.9-65.071,7.235
			c-6.648,0.254-48.15,3.75-91.794,50.69c-3.661-1.648-7.634-2.524-11.656-2.524c-10.07,0-19.486,5.392-24.575,14.071
			c-6.362,10.853-4.69,24.228,3.194,33.199c-0.293,0.492-4.216,7.178-4.216,7.178c-2.4-0.647-4.882-0.982-7.382-0.982
			c-10.07,0-19.486,5.392-24.575,14.071c-6.622,11.295-4.542,25.324,4.189,34.274l-6.367,10.86
			c-2.412-0.654-4.907-0.991-7.419-0.991c-10.07,0-19.486,5.392-24.575,14.072c-6.629,11.307-4.537,25.353,4.216,34.302
			l-83.328,142.137c-1.732,2.953-4.19,5.363-7.085,7.066c-3.066-7.104-8.327-13.332-15.499-17.536
			c-4.271-2.504-8.98-4.129-13.839-4.81c0.538-1.999,1.384-3.919,2.541-5.706c1.209-1.866,2.423-3.793,3.634-5.742
			c12.723-0.543,24.473-7.543,30.939-18.573c7.275-12.408,6.744-28.367-1.34-40.262c13.012-33.418,19.238-65.864,18.515-96.589
			l1.492-0.587c9.655-3.796,15.44-13.981,13.755-24.219c-2.255-13.699-17.033-22.107-29.968-17.02l-88.252,34.695
			c-3.855,1.516-5.751,5.869-4.236,9.724c1.515,3.854,5.867,5.751,9.724,4.236c0,0,88.07-34.624,88.251-34.695
			c4.168-1.638,8.955,1.1,9.679,5.497c0.544,3.306-1.324,6.596-4.442,7.822c0,0-138.927,54.618-139.151,54.706
			c-4.191,1.647-8.95-1.071-9.679-5.497c-0.544-3.306,1.324-6.596,4.442-7.822l23.393-9.196c3.855-1.516,5.751-5.869,4.236-9.724
			c-1.516-3.855-5.871-5.751-9.724-4.236l-23.393,9.196c-9.655,3.796-15.44,13.981-13.755,24.219
			c1.093,6.635,5.073,12.345,10.921,15.666c4.35,2.47,9.697,3.441,14.738,2.555c2.53,15.851,6.243,45.774,6.387,48.173
			c0.824,23.325-1.913,47.974-7.915,71.28c-8.164,31.7-18.635,65.712-7.816,98.112c13.58,40.665,58.217,65.942,99.96,63.513
			c22.593-1.315,43.875-10.209,63.254-26.437c15.859-13.28,30.383-31.654,42-53.134c26.068-48.2,49.246-104.052,71.66-158.067
			c3.427-8.259,6.942-16.729,10.423-25.061l4.049,2.278c10.501,5.909,24.197,2.062,30.1-8.426
			c5.869-10.434,2.244-23.847-8.096-29.909l-8.639-4.861c3.462-7.926,6.714-15.217,9.822-22.017c0,0,4.779,2.616,4.78,2.617
			c10.571,5.787,24.218,1.785,29.998-8.772c5.847-10.677,1.915-24.133-8.772-30l-6.62-3.625c3.151-5.987,6.205-11.531,9.213-16.717
			l5.294,2.83c10.636,5.687,24.232,1.552,29.91-9.069c5.739-10.734,1.674-24.15-9.07-29.911l-0.846-0.453
			c14.074-16.191,27.391-24.093,40.543-24.093c6.098,0,12.186-0.403,18.286-0.403c11.944,0,22.857-6.046,29.19-16.173
			c4.975-7.955,14.229-9.15,22.597-11.193c9.553-2.333,16.113-10.829,15.954-20.662C511.611,9.149,502.5,0.11,491.055,0.006z
			 M309.456,77.06c4.011-6.842,13.642-8.637,19.879-3.805c0.051,0.043,0.098,0.091,0.15,0.133c7.274,5.82,6.2,17.876-2.009,22.301
			c-3.608,1.945-8.102,2.148-11.899,0.464c-0.046-0.021-0.091-0.042-0.137-0.063C308.321,92.816,305.498,83.81,309.456,77.06z
			 M346.7,122.633c-2.991,5.172-6.021,10.672-9.138,16.589l-23.136-12.667c-0.027-0.067-0.058-0.131-0.086-0.198
			c-1.365-3.271-3.396-6.379-5.899-8.934c0,0,3.653-6.23,3.809-6.494c0.162,0.052,0.327,0.092,0.49,0.142
			c4.441,1.359,9.154,1.625,13.714,0.737L346.7,122.633z M276.477,130.525c2.407-4.107,6.866-6.658,11.634-6.658
			c6.874,0,12.833,5.594,13.391,12.425c0.004,0.048,0.013,0.095,0.016,0.143c0.418,6.072-3.597,11.938-9.472,13.744
			C280.563,153.708,270.429,140.843,276.477,130.525z M280.659,164.811c0.496,0.135,0.997,0.248,1.499,0.355
			c0.012,0.002,0.024,0.006,0.036,0.009c1.896,0.455,3.931,0.625,5.877,0.625c1.733,0,3.444-0.17,5.119-0.479l24.957,13.663
			c-3.099,6.763-6.332,13.992-9.769,21.844c0,0-27.988-15.746-27.99-15.748c-0.193-0.11-0.4-0.962-0.484-1.151
			c-1.354-3.046-3.268-5.887-5.606-8.267L280.659,164.811z M242.306,188.739c3.694-6.3,12.128-8.496,18.436-4.797
			c6.318,3.704,8.495,12.101,4.793,18.416c-3.653,6.23-12.119,8.506-18.431,4.801C240.706,203.402,238.553,195.142,242.306,188.739z
			 M130.966,375.873c2.2,13.045-7.854,25.597-21.035,26.386c-10.648,0.638-20.57-6.616-23.256-16.912
			c-3.665-14.052,7.436-28.403,21.969-28.403C119.594,356.944,129.151,365.11,130.966,375.873z M138.005,304.706
			c-4.054,6.916-11.561,11.212-19.589,11.212c-9.951,0-19.09-6.967-21.783-16.541c-4.013-14.268,7.068-28.819,21.839-28.819
			C135.578,270.558,146.645,289.971,138.005,304.706z M279.826,268.452c-22.269,53.665-45.296,109.157-70.999,156.68
			c-32.223,59.582-72.055,70.517-92.929,71.732c-34.83,2.027-73.454-19.167-84.865-53.295c-9.868-29.513,0.703-60.828,8.116-89.614
			c6.356-24.681,9.253-50.806,8.379-75.553c-0.11-3.101-4.345-36.833-7.035-52.788l112.691-44.304
			c-0.14,25.372-5.299,52.063-15.391,79.601c-0.096-0.058-0.193-0.115-0.297-0.176c-17.472-10.302-40.671-4.289-51.239,12.93
			c-5.307,8.646-6.828,19.277-4.271,29.081c2.725,10.449,9.978,19.356,19.621,24.196c0.707,0.354,1.424,0.679,2.146,0.986
			c0.037,0.016,0.073,0.035,0.111,0.05c0.058,0.024,0.114,0.054,0.171,0.079c-0.085,0.131-0.169,0.262-0.254,0.393
			c-2.962,4.573-4.788,9.643-5.405,14.929c-12.89,3.661-23.283,14.432-26.421,27.476c-2.543,10.573-0.234,22.065,6.133,30.867
			c11.681,16.147,34.699,20.276,51.305,9.303c10.214-6.749,16.69-18.532,16.874-30.77c0.002-0.142,0.016-0.283,0.016-0.425
			c7.036-2.877,13.007-7.997,16.908-14.651l83.333-142.145c0.931,0.251,1.877,0.442,2.829,0.597
			c3.103,0.506,6.237,0.492,9.335-0.041l32.251,18.145C287.233,250.603,283.479,259.649,279.826,268.452z M322.439,225.948
			l0.147,0.086c3.316,1.944,4.479,6.253,2.594,9.604c-1.896,3.371-6.31,4.6-9.672,2.708l-41.046-23.093
			c3.255-3.396,5.661-7.617,6.908-12.153c0.02-0.074,0.047-0.146,0.067-0.22L322.439,225.948z M352.962,172.847
			c-1.858,3.391-6.252,4.673-9.638,2.819l-34.464-18.868c3.147-3.354,5.446-7.479,6.673-11.909c0.05-0.181,0.112-0.359,0.159-0.541
			l34.444,18.856C353.572,165.092,354.841,169.417,352.962,172.847z M381.913,116.398c-1.824,3.412-6.204,4.735-9.609,2.914
			l-30.277-16.188c0.079-0.085,0.152-0.177,0.23-0.263c3.074-3.421,5.316-7.62,6.432-12.083c0.014-0.057,0.034-0.113,0.048-0.17
			l30.254,16.176C382.447,108.637,383.758,112.949,381.913,116.398z M371.69,85.87l-24.378-13.034
			c-0.795-1.901-1.789-3.695-2.961-5.36c21.051-22.406,41.185-33.466,54.747-38.849c8.242-3.271,15.056-4.875,19.683-5.66
			l3.49,31.173C405.046,55.38,388.427,65.804,371.69,85.87z M492.284,26.675l-10.729,2.62c-8.771,2.142-16.238,7.537-21.026,15.191
			c-3.655,5.844-10.023,9.282-16.929,9.122l-6.312-0.147l-3.665-32.735C455.967,16.529,477.349,15,489.611,15
			c0.445,0,0.883,0.002,1.309,0.005c3.244,0.03,5.826,2.587,5.878,5.823C496.843,23.61,494.987,26.015,492.284,26.675z"/>
	</g>
</g>
<g>
</g>
<g>
</g>
<g>
</g>
<g>
</g>
<g>
</g>
<g>
</g>
<g>
</g>
<g>
</g>
<g>
</g>
<g>
</g>
<g>
</g>
<g>
</g>
<g>
</g>
<g>
</g>
<g>
</g>
</svg>
